mtllib Map03.mtl
o Map03
v 19.9 0 19.9
v 19.9 3 19.9
v 23.3 0 17.7
v 23.3 3 17.7
v 23.3 0 17.7
v 23.3 3 17.7
v 30.3 0 17.7
v 30.3 3 17.7
v 30.3 0 17.7
v 30.3 3 17.7
v 33.8 0 19.8
v 33.8 3 19.8
v 33.8 0 19.8
v 33.8 3 19.8
v 33.9 0 19.9
v 33.9 3 19.9
v 33.9 0 19.9
v 33.9 3 19.9
v 33.8 0 33.4
v 33.8 3 33.4
v 33.8 0 33.4
v 33.8 3 33.4
v 29.2 0 33.4
v 29.2 3 33.4
v 29.2 0 33.4
v 29.2 3 33.4
v 29.1 0 38.3
v 29.1 3 38.3
v 29.1 0 38.3
v 29.1 3 38.3
v 28.1 0 37.6
v 28.1 3 37.6
v 28.1 0 37.6
v 28.1 3 37.6
v 27.2 0 38.3
v 27.2 3 38.3
v 27.2 0 38.3
v 27.2 3 38.3
v 27.2 0 40.6
v 27.2 3 40.6
v 27.2 0 40.6
v 27.2 3 40.6
v 25.1 0 40.5
v 25.1 3 40.5
v 25.1 0 40.5
v 25.1 3 40.5
v 25.1 0 38.2
v 25.1 3 38.2
v 25.1 0 38.2
v 25.1 3 38.2
v 24.1 0 37.5
v 24.1 3 37.5
v 24.1 0 37.5
v 24.1 3 37.5
v 23.1 0 38.3
v 23.1 3 38.3
v 23.1 0 38.3
v 23.1 3 38.3
v 23.2 0 33.4
v 23.2 3 33.4
v 23.2 0 33.4
v 23.2 3 33.4
v 20 0 33.4
v 20 3 33.4
v 20 0 33.4
v 20 3 33.4
v 19.9 0 19.9
v 19.9 3 19.9
v 23.3 0 17.7
v 19.9 0 19.9
v 23.2 0 33.4
v 20 0 33.4
v 29.2 0 33.4
v 28.1 0 37.6
v 24.1 0 37.5
v 25.1 0 38.2
v 27.2 0 38.3
v 25.1 0 40.5
v 27.2 0 40.6
v 23.1 0 38.3
v 29.1 0 38.3
v 30.3 0 17.7
v 33.8 0 19.8
v 33.9 0 19.9
v 33.8 0 33.4
v 23.2 3 33.4
v 20 3 33.4
v 19.9 3 19.9
v 23.3 3 17.7
v 30.3 3 17.7
v 29.2 3 33.4
v 28.1 3 37.6
v 24.1 3 37.5
v 23.1 3 38.3
v 25.1 3 38.2
v 27.2 3 38.3
v 25.1 3 40.5
v 27.2 3 40.6
v 29.1 3 38.3
v 33.8 3 19.8
v 33.9 3 19.9
v 33.8 3 33.4

vn 0.5432509 0 0.8395703
vn 0.5432509 0 0.8395703
vn 0.5432509 0 0.8395703
vn 0.5432509 0 0.8395703
vn 0 0 1
vn 0 0 1
vn 0 0 1
vn 0 0 1
vn -0.514496 0 0.8574927
vn -0.514496 0 0.8574927
vn -0.514496 0 0.8574927
vn -0.514496 0 0.8574927
vn -0.7070933 0 0.7071203
vn -0.7070933 0 0.7071203
vn -0.7070933 0 0.7071203
vn -0.7070933 0 0.7071203
vn -0.9999726 0 -0.007407372
vn -0.9999726 0 -0.007407372
vn -0.9999726 0 -0.007407372
vn -0.9999726 0 -0.007407372
vn 0 0 -1
vn 0 0 -1
vn 0 0 -1
vn 0 0 -1
vn -0.9997919 0 -0.020404
vn -0.9997919 0 -0.020404
vn -0.9997919 0 -0.020404
vn -0.9997919 0 -0.020404
vn 0.5734606 0 -0.8192331
vn 0.5734606 0 -0.8192331
vn 0.5734606 0 -0.8192331
vn 0.5734606 0 -0.8192331
vn -0.6139391 0 -0.7893534
vn -0.6139391 0 -0.7893534
vn -0.6139391 0 -0.7893534
vn -0.6139391 0 -0.7893534
vn -0.9999999 0 0
vn -0.9999999 0 0
vn -0.9999999 0 0
vn -0.9999999 0 0
vn 0.04756622 0 -0.998868
vn 0.04756622 0 -0.998868
vn 0.04756622 0 -0.998868
vn 0.04756622 0 -0.998868
vn 1 0 0
vn 1 0 0
vn 1 0 0
vn 1 0 0
vn 0.5734628 0 -0.8192316
vn 0.5734628 0 -0.8192316
vn 0.5734628 0 -0.8192316
vn 0.5734628 0 -0.8192316
vn -0.6246947 0 -0.7808691
vn -0.6246947 0 -0.7808691
vn -0.6246947 0 -0.7808691
vn -0.6246947 0 -0.7808691
vn 0.9997919 0 0.020404
vn 0.9997919 0 0.020404
vn 0.9997919 0 0.020404
vn 0.9997919 0 0.020404
vn 0 0 -1
vn 0 0 -1
vn 0 0 -1
vn 0 0 -1
vn 0.9999726 0 -0.007407231
vn 0.9999726 0 -0.007407231
vn 0.9999726 0 -0.007407231
vn 0.9999726 0 -0.007407231
vn 0 1 0
vn 0 1 0
vn 0 1 0
vn 0 1 0
vn 0 1 0
vn 0 1 0
vn 0 1 0
vn 0 1 0
vn 0 1 0
vn 0 1 0
vn 0 1 0
vn 0 1 0
vn 0 1 0
vn 0 1 0
vn 0 1 0
vn 0 1 0
vn 0 1 0
vn 0 -1 0
vn 0 -1 0
vn 0 -1 0
vn 0 -1 0
vn 0 -1 0
vn 0 -0.9999999 0
vn 0 -1 0
vn 0 -1 0
vn 0 -1 0
vn 0 -1 0
vn 0 -1 0
vn 0 -1 0
vn 0 -1 0
vn 0 -1 0
vn 0 -1 0
vn 0 -1 0
vn 0 -1 0

vt 0 0
vt 0 1
vt 2.024846 0
vt 2.024846 1
vt 0 0
vt 0 1
vt 3.5 0
vt 3.5 1
vt 0 0
vt 0 1
vt 2.040833 0
vt 2.040833 1
vt 0 0
vt 0 1
vt 0.07071068 0
vt 0.07071068 1
vt 0 0
vt 0 1
vt 6.750185 0
vt 6.750185 1
vt 0 0
vt 0 1
vt 2.3 0
vt 2.3 1
vt 0 0
vt 0 1
vt 2.45051 0
vt 2.45051 1
vt 0 0
vt 0 1
vt 0.6103278 0
vt 0.6103278 1
vt 0 0
vt 0 1
vt 0.5700877 0
vt 0.5700877 1
vt 0 0
vt 0 1
vt 1.15 0
vt 1.15 1
vt 0 0
vt 0 1
vt 1.05119 0
vt 1.05119 1
vt 0 0
vt 0 1
vt 1.15 0
vt 1.15 1
vt 0 0
vt 0 1
vt 0.6103278 0
vt 0.6103278 1
vt 0 0
vt 0 1
vt 0.6403124 0
vt 0.6403124 1
vt 0 0
vt 0 1
vt 2.45051 0
vt 2.45051 1
vt 0 0
vt 0 1
vt 1.6 0
vt 1.6 1
vt 0 0
vt 0 1
vt 6.750185 0
vt 6.750185 1
vt 0 0
vt 0 0
vt 0 0
vt 0 0
vt 0 0
vt 0 0
vt 0 0
vt 0 0
vt 0 0
vt 0 0
vt 0 0
vt 0 0
vt 0 0
vt 0 0
vt 0 0
vt 0 0
vt 0 0
vt 0 0
vt 0 0
vt 0 0
vt 0 0
vt 0 0
vt 0 0
vt 0 0
vt 0 0
vt 0 0
vt 0 0
vt 0 0
vt 0 0
vt 0 0
vt 0 0
vt 0 0
vt 0 0
vt 0 0
usemtl material_0
f 1/1/1 3/3/3 2/2/2
f 2/2/2 3/3/3 4/4/4
f 5/5/5 7/7/7 6/6/6
f 6/6/6 7/7/7 8/8/8
f 9/9/9 11/11/11 10/10/10
f 10/10/10 11/11/11 12/12/12
f 13/13/13 15/15/15 14/14/14
f 14/14/14 15/15/15 16/16/16
f 17/17/17 19/19/19 18/18/18
f 18/18/18 19/19/19 20/20/20
f 21/21/21 23/23/23 22/22/22
f 22/22/22 23/23/23 24/24/24
f 25/25/25 27/27/27 26/26/26
f 26/26/26 27/27/27 28/28/28
f 29/29/29 31/31/31 30/30/30
f 30/30/30 31/31/31 32/32/32
f 33/33/33 35/35/35 34/34/34
f 34/34/34 35/35/35 36/36/36
f 37/37/37 39/39/39 38/38/38
f 38/38/38 39/39/39 40/40/40
f 41/41/41 43/43/43 42/42/42
f 42/42/42 43/43/43 44/44/44
f 45/45/45 47/47/47 46/46/46
f 46/46/46 47/47/47 48/48/48
f 49/49/49 51/51/51 50/50/50
f 50/50/50 51/51/51 52/52/52
f 53/53/53 55/55/55 54/54/54
f 54/54/54 55/55/55 56/56/56
f 57/57/57 59/59/59 58/58/58
f 58/58/58 59/59/59 60/60/60
f 61/61/61 63/63/63 62/62/62
f 62/62/62 63/63/63 64/64/64
f 65/65/65 67/67/67 66/66/66
f 66/66/66 67/67/67 68/68/68
usemtl material_1
f 86/86/86 87/87/87 88/88/88
f 89/89/89 86/86/86 88/88/88
f 89/89/89 90/90/90 86/86/86
f 90/90/90 91/91/91 86/86/86
f 91/91/91 92/92/92 86/86/86
f 92/92/92 93/93/93 86/86/86
f 94/94/94 86/86/86 93/93/93
f 95/95/95 93/93/93 92/92/92
f 96/96/96 95/95/95 92/92/92
f 97/97/97 95/95/95 96/96/96
f 97/97/97 96/96/96 98/98/98
f 99/99/99 92/92/92 91/91/91
f 100/100/100 91/91/91 90/90/90
f 101/101/101 91/91/91 100/100/100
f 102/102/102 91/91/91 101/101/101
usemtl material_2
f 69/69/69 70/70/70 71/71/71
f 70/70/70 72/72/72 71/71/71
f 69/69/69 71/71/71 73/73/73
f 73/73/73 71/71/71 74/74/74
f 71/71/71 75/75/75 74/74/74
f 75/75/75 76/76/76 74/74/74
f 76/76/76 77/77/77 74/74/74
f 77/77/77 76/76/76 78/78/78
f 78/78/78 79/79/79 77/77/77
f 75/75/75 71/71/71 80/80/80
f 74/74/74 81/81/81 73/73/73
f 82/82/82 69/69/69 73/73/73
f 83/83/83 82/82/82 73/73/73
f 83/83/83 73/73/73 84/84/84
f 84/84/84 73/73/73 85/85/85
