mtllib Map03.mtl
o Map03
v 56.6 0 19.4
v 56.6 3 19.4
v 44.9 0 32.4
v 44.9 3 32.4
v 44.9 0 32.4
v 44.9 3 32.4
v 71.3 0 47.5
v 71.3 3 47.5
v 71.3 0 47.5
v 71.3 3 47.5
v 21 0 47.2
v 21 3 47.2
v 21 0 47.2
v 21 3 47.2
v 21 0 19.5
v 21 3 19.5
v 21 0 19.5
v 21 3 19.5
v 56.6 0 19.4
v 56.6 3 19.4
v 21 0 19.5
v 44.9 0 32.4
v 56.6 0 19.4
v 21 0 47.2
v 71.3 0 47.5
v 21 3 47.2
v 44.9 3 32.4
v 71.3 3 47.5
v 21 3 19.5
v 56.6 3 19.4

vn -0.7432942 0 -0.6689647
vn -0.7432942 0 -0.6689647
vn -0.7432942 0 -0.6689647
vn -0.7432942 0 -0.6689647
vn -0.496493 0 0.8680408
vn -0.496493 0 0.8680408
vn -0.496493 0 0.8680408
vn -0.496493 0 0.8680408
vn 0.005964093 0 -0.9999822
vn 0.005964093 0 -0.9999822
vn 0.005964093 0 -0.9999822
vn 0.005964093 0 -0.9999822
vn 1 0 0
vn 1 0 0
vn 1 0 0
vn 1 0 0
vn 0.002808989 0 0.9999961
vn 0.002808989 0 0.9999961
vn 0.002808989 0 0.9999961
vn 0.002808989 0 0.9999961
vn 0 1 0
vn 0 1 0
vn 0 1 0
vn 0 1 0
vn 0 1 0
vn 0 -1 0
vn 0 -0.9999999 0
vn 0 -1 0
vn 0 -1 0
vn 0 -1 0

vt 0 0
vt 0 1
vt 8.744856 0
vt 8.744856 1
vt 0 0
vt 0 1
vt 15.20666 0
vt 15.20666 1
vt 0 0
vt 0 1
vt 25.15045 0
vt 25.15045 1
vt 0 0
vt 0 1
vt 13.85 0
vt 13.85 1
vt 0 0
vt 0 1
vt 17.80007 0
vt 17.80007 1
vt 0 0
vt 0 0
vt 0 0
vt 0 0
vt 0 0
vt 0 0
vt 0 0
vt 0 0
vt 0 0
vt 0 0
usemtl material_0
f 1/1/1 3/3/3 2/2/2
f 2/2/2 3/3/3 4/4/4
f 5/5/5 7/7/7 6/6/6
f 6/6/6 7/7/7 8/8/8
f 9/9/9 11/11/11 10/10/10
f 10/10/10 11/11/11 12/12/12
f 13/13/13 15/15/15 14/14/14
f 14/14/14 15/15/15 16/16/16
f 17/17/17 19/19/19 18/18/18
f 18/18/18 19/19/19 20/20/20
usemtl material_1
f 26/26/26 27/27/27 28/28/28
f 26/26/26 29/29/29 27/27/27
f 27/27/27 29/29/29 30/30/30
usemtl material_2
f 21/21/21 22/22/22 23/23/23
f 21/21/21 24/24/24 22/22/22
f 22/22/22 24/24/24 25/25/25
