mtllib Test2.mtl
o Test2
v 32.3 0 12.9
v 32.3 3 12.9
v 47.8 0 20.1
v 47.8 3 20.1
v 47.8 0 20.1
v 47.8 3 20.1
v 47 0 41
v 47 3 41
v 47 0 41
v 47 3 41
v 25.2 0 43.6
v 25.2 3 43.6
v 25.2 0 43.6
v 25.2 3 43.6
v 22.8 0 24.1
v 22.8 3 24.1
v 22.8 0 24.1
v 22.8 3 24.1
v 32.3 0 12.9
v 32.3 3 12.9
v 32.3 0 12.9
v 22.8 0 24.1
v 47.8 0 20.1
v 47 0 41
v 25.2 0 43.6
v 25.2 3 43.6
v 22.8 3 24.1
v 47 3 41
v 47.8 3 20.1
v 32.3 3 12.9

vn -0.4212832 0 0.9069291
vn -0.4212832 0 0.9069291
vn -0.4212832 0 0.9069291
vn -0.4212832 0 0.9069291
vn -0.9992682 0 -0.03824947
vn -0.9992682 0 -0.03824947
vn -0.9992682 0 -0.03824947
vn -0.9992682 0 -0.03824947
vn -0.1184269 0 -0.9929627
vn -0.1184269 0 -0.9929627
vn -0.1184269 0 -0.9929627
vn -0.1184269 0 -0.9929627
vn 0.9925109 0 -0.1221552
vn 0.9925109 0 -0.1221552
vn 0.9925109 0 -0.1221552
vn 0.9925109 0 -0.1221552
vn 0.762611 0 0.6468574
vn 0.762611 0 0.6468574
vn 0.762611 0 0.6468574
vn 0.762611 0 0.6468574
vn 0 0.9999999 0
vn 0 1 0
vn 0 1 0
vn 0 1 0
vn 0 1 0
vn 0 -1 0
vn 0 -1 0
vn 0 -0.9999999 0
vn 0 -1 0
vn 0 -1 0

vt 0 0
vt 0 1
vt 8.545321 0
vt 8.545321 1
vt 0 0
vt 0 1
vt 10.45765 0
vt 10.45765 1
vt 0 0
vt 0 1
vt 10.97725 0
vt 10.97725 1
vt 0 0
vt 0 1
vt 9.823569 0
vt 9.823569 1
vt 0 0
vt 0 1
vt 7.343194 0
vt 7.343194 1
vt 0 0
vt 0 0
vt 0 0
vt 0 0
vt 0 0
vt 0 0
vt 0 0
vt 0 0
vt 0 0
vt 0 0
usemtl material_0
f 1/1/1 3/3/3 2/2/2
f 2/2/2 3/3/3 4/4/4
f 5/5/5 7/7/7 6/6/6
f 6/6/6 7/7/7 8/8/8
f 9/9/9 11/11/11 10/10/10
f 10/10/10 11/11/11 12/12/12
f 13/13/13 15/15/15 14/14/14
f 14/14/14 15/15/15 16/16/16
f 17/17/17 19/19/19 18/18/18
f 18/18/18 19/19/19 20/20/20
usemtl material_1
f 21/21/21 22/22/22 23/23/23
f 22/22/22 24/24/24 23/23/23
f 24/24/24 22/22/22 25/25/25
usemtl material_2
f 26/26/26 27/27/27 28/28/28
f 28/28/28 27/27/27 29/29/29
f 29/29/29 27/27/27 30/30/30
