mtllib Test2.mtl
o Test2
v 20 0 20
v 20 3 20
v 34.2 0 17
v 34.2 3 17
v 34.2 0 17
v 34.2 3 17
v 30 0 30
v 30 3 30
v 30 0 30
v 30 3 30
v 20 0 30
v 20 3 30
v 20 0 30
v 20 3 30
v 20 0 25
v 20 3 25
v 20 0 25
v 20 3 25
v 20 0 20
v 20 3 20
v 20 0 20
v 30 0 30
v 34.2 0 17
v 20 0 25
v 20 0 30
v 30 3 30
v 20 3 30
v 20 3 25
v 20 3 20
v 34.2 3 17

vn 0.2067049 0 0.9784033
vn 0.2067049 0 0.9784033
vn 0.2067049 0 0.9784033
vn 0.2067049 0 0.9784033
vn -0.9515706 0 -0.3074305
vn -0.9515706 0 -0.3074305
vn -0.9515706 0 -0.3074305
vn -0.9515706 0 -0.3074305
vn 0 0 -1
vn 0 0 -1
vn 0 0 -1
vn 0 0 -1
vn 1 0 0
vn 1 0 0
vn 1 0 0
vn 1 0 0
vn 1 0 0
vn 1 0 0
vn 1 0 0
vn 1 0 0
vn 0 1 0
vn 0 1 0
vn 0 1 0
vn 0 1 0
vn 0 1 0
vn 0 -1 0
vn 0 -1 0
vn 0 -1 0
vn 0 -1 0
vn 0 -1 0

vt 0 0
vt 0 1
vt 7.256721 0
vt 7.256721 1
vt 0 0
vt 0 1
vt 6.830813 0
vt 6.830813 1
vt 0 0
vt 0 1
vt 5 0
vt 5 1
vt 0 0
vt 0 1
vt 2.5 0
vt 2.5 1
vt 0 0
vt 0 1
vt 2.5 0
vt 2.5 1
vt 0 0
vt 0 0
vt 0 0
vt 0 0
vt 0 0
vt 0 0
vt 0 0
vt 0 0
vt 0 0
vt 0 0
usemtl material_0
f 1/1/1 3/3/3 2/2/2
f 2/2/2 3/3/3 4/4/4
f 5/5/5 7/7/7 6/6/6
f 6/6/6 7/7/7 8/8/8
f 9/9/9 11/11/11 10/10/10
f 10/10/10 11/11/11 12/12/12
f 13/13/13 15/15/15 14/14/14
f 14/14/14 15/15/15 16/16/16
f 17/17/17 19/19/19 18/18/18
f 18/18/18 19/19/19 20/20/20
usemtl material_1
f 26/26/26 27/27/27 28/28/28
f 26/26/26 28/28/28 29/29/29
f 29/29/29 30/30/30 26/26/26
usemtl material_2
f 21/21/21 22/22/22 23/23/23
f 21/21/21 24/24/24 22/22/22
f 24/24/24 25/25/25 22/22/22
