mtllib Test2.mtl
o Test2
v 20.7 0 12.4
v 20.7 3 12.4
v 54.9 0 12.4
v 54.9 3 12.4
v 54.9 0 12.4
v 54.9 3 12.4
v 54.9 0 52.1
v 54.9 3 52.1
v 54.9 0 52.1
v 54.9 3 52.1
v 21 0 52.1
v 21 3 52.1
v 21 0 52.1
v 21 3 52.1
v 14 0 29.5
v 14 3 29.5
v 14 0 29.5
v 14 3 29.5
v 20.7 0 12.4
v 20.7 3 12.4
v 54.9 0 12.4
v 20.7 0 12.4
v 14 0 29.5
v 54.9 0 52.1
v 21 0 52.1
v 54.9 3 52.1
v 21 3 52.1
v 14 3 29.5
v 54.9 3 12.4
v 20.7 3 12.4

vn 0 0 1
vn 0 0 1
vn 0 0 1
vn 0 0 1
vn -1 0 0
vn -1 0 0
vn -1 0 0
vn -1 0 0
vn 0 0 -1
vn 0 0 -1
vn 0 0 -1
vn 0 0 -1
vn 0.955229 0 -0.2958674
vn 0.955229 0 -0.2958674
vn 0.955229 0 -0.2958674
vn 0.955229 0 -0.2958674
vn 0.931082 0 0.36481
vn 0.931082 0 0.36481
vn 0.931082 0 0.36481
vn 0.931082 0 0.36481
vn 0 1 0
vn 0 1 0
vn 0 1 0
vn 0 1 0
vn 0 1 0
vn 0 -1 0
vn 0 -1 0
vn 0 -1 0
vn 0 -1 0
vn 0 -1 0

vt 0 0
vt 0 1
vt 17.1 0
vt 17.1 1
vt 0 0
vt 0 1
vt 19.85 0
vt 19.85 1
vt 0 0
vt 0 1
vt 16.95 0
vt 16.95 1
vt 0 0
vt 0 1
vt 11.82962 0
vt 11.82962 1
vt 0 0
vt 0 1
vt 9.182864 0
vt 9.182864 1
vt 0 0
vt 0 0
vt 0 0
vt 0 0
vt 0 0
vt 0 0
vt 0 0
vt 0 0
vt 0 0
vt 0 0
usemtl material_0
f 1/1/1 3/3/3 2/2/2
f 2/2/2 3/3/3 4/4/4
f 5/5/5 7/7/7 6/6/6
f 6/6/6 7/7/7 8/8/8
f 9/9/9 11/11/11 10/10/10
f 10/10/10 11/11/11 12/12/12
f 13/13/13 15/15/15 14/14/14
f 14/14/14 15/15/15 16/16/16
f 17/17/17 19/19/19 18/18/18
f 18/18/18 19/19/19 20/20/20
usemtl material_1
f 26/26/26 27/27/27 28/28/28
f 26/26/26 28/28/28 29/29/29
f 29/29/29 28/28/28 30/30/30
usemtl material_2
f 21/21/21 22/22/22 23/23/23
f 24/24/24 21/21/21 23/23/23
f 23/23/23 25/25/25 24/24/24
